<mxfile host="app.diagrams.net" agent="Mozilla/5.0 (Macintosh; Intel Mac OS X 10_15_7) AppleWebKit/537.36 (KHTML, like Gecko) Chrome/132.0.0.0 Safari/537.36" version="26.0.11">
  <diagram name="Page-1" id="UaJDs4lbZxNugbxCQfQl">
    <mxGraphModel dx="1930" dy="726" grid="1" gridSize="10" guides="1" tooltips="1" connect="1" arrows="1" fold="1" page="1" pageScale="1" pageWidth="850" pageHeight="1100" math="0" shadow="0">
      <root>
        <mxCell id="0" />
        <mxCell id="1" parent="0" />
        <mxCell id="xFqJ5pbO8O-fmW_8S8sk-86" style="edgeStyle=none;curved=1;rounded=0;orthogonalLoop=1;jettySize=auto;html=1;exitX=0.5;exitY=1;exitDx=0;exitDy=0;fontSize=12;startSize=8;endSize=8;" edge="1" parent="1" source="xFqJ5pbO8O-fmW_8S8sk-84" target="xFqJ5pbO8O-fmW_8S8sk-85">
          <mxGeometry relative="1" as="geometry" />
        </mxCell>
        <mxCell id="xFqJ5pbO8O-fmW_8S8sk-84" value="UI" style="rounded=0;whiteSpace=wrap;html=1;" vertex="1" parent="1">
          <mxGeometry x="-620" y="40" width="120" height="60" as="geometry" />
        </mxCell>
        <mxCell id="xFqJ5pbO8O-fmW_8S8sk-88" style="edgeStyle=none;curved=1;rounded=0;orthogonalLoop=1;jettySize=auto;html=1;exitX=0.5;exitY=1;exitDx=0;exitDy=0;entryX=0.5;entryY=0;entryDx=0;entryDy=0;fontSize=12;startSize=8;endSize=8;" edge="1" parent="1" source="xFqJ5pbO8O-fmW_8S8sk-85" target="xFqJ5pbO8O-fmW_8S8sk-87">
          <mxGeometry relative="1" as="geometry" />
        </mxCell>
        <mxCell id="xFqJ5pbO8O-fmW_8S8sk-85" value="Dashboard" style="rounded=0;whiteSpace=wrap;html=1;" vertex="1" parent="1">
          <mxGeometry x="-620" y="165" width="120" height="60" as="geometry" />
        </mxCell>
        <mxCell id="xFqJ5pbO8O-fmW_8S8sk-90" style="edgeStyle=none;curved=1;rounded=0;orthogonalLoop=1;jettySize=auto;html=1;exitX=0.5;exitY=1;exitDx=0;exitDy=0;entryX=0.5;entryY=0;entryDx=0;entryDy=0;fontSize=12;startSize=8;endSize=8;" edge="1" parent="1" source="xFqJ5pbO8O-fmW_8S8sk-87" target="xFqJ5pbO8O-fmW_8S8sk-89">
          <mxGeometry relative="1" as="geometry" />
        </mxCell>
        <mxCell id="xFqJ5pbO8O-fmW_8S8sk-87" value="Server" style="rounded=0;whiteSpace=wrap;html=1;" vertex="1" parent="1">
          <mxGeometry x="-620" y="270" width="120" height="60" as="geometry" />
        </mxCell>
        <mxCell id="xFqJ5pbO8O-fmW_8S8sk-97" style="edgeStyle=none;curved=1;rounded=0;orthogonalLoop=1;jettySize=auto;html=1;exitX=0.5;exitY=1;exitDx=0;exitDy=0;fontSize=12;startSize=8;endSize=8;" edge="1" parent="1" source="xFqJ5pbO8O-fmW_8S8sk-89" target="xFqJ5pbO8O-fmW_8S8sk-93">
          <mxGeometry relative="1" as="geometry" />
        </mxCell>
        <mxCell id="xFqJ5pbO8O-fmW_8S8sk-89" value="&lt;div&gt;package database&lt;/div&gt;" style="rounded=0;whiteSpace=wrap;html=1;" vertex="1" parent="1">
          <mxGeometry x="-620" y="380" width="120" height="60" as="geometry" />
        </mxCell>
        <mxCell id="xFqJ5pbO8O-fmW_8S8sk-119" style="edgeStyle=none;curved=1;rounded=0;orthogonalLoop=1;jettySize=auto;html=1;exitX=0;exitY=0.5;exitDx=0;exitDy=0;entryX=1;entryY=0.5;entryDx=0;entryDy=0;fontSize=12;startSize=8;endSize=8;" edge="1" parent="1" source="xFqJ5pbO8O-fmW_8S8sk-91" target="xFqJ5pbO8O-fmW_8S8sk-87">
          <mxGeometry relative="1" as="geometry" />
        </mxCell>
        <mxCell id="xFqJ5pbO8O-fmW_8S8sk-91" value="Retailer UI" style="rounded=0;whiteSpace=wrap;html=1;" vertex="1" parent="1">
          <mxGeometry x="-425" y="270" width="120" height="60" as="geometry" />
        </mxCell>
        <mxCell id="xFqJ5pbO8O-fmW_8S8sk-93" value="Back-end server" style="rounded=0;whiteSpace=wrap;html=1;" vertex="1" parent="1">
          <mxGeometry x="-620" y="500" width="120" height="60" as="geometry" />
        </mxCell>
        <mxCell id="xFqJ5pbO8O-fmW_8S8sk-117" style="edgeStyle=none;curved=1;rounded=0;orthogonalLoop=1;jettySize=auto;html=1;exitX=0.5;exitY=0;exitDx=0;exitDy=0;entryX=0.5;entryY=1;entryDx=0;entryDy=0;fontSize=12;startSize=8;endSize=8;" edge="1" parent="1" source="xFqJ5pbO8O-fmW_8S8sk-98" target="xFqJ5pbO8O-fmW_8S8sk-91">
          <mxGeometry relative="1" as="geometry" />
        </mxCell>
        <mxCell id="xFqJ5pbO8O-fmW_8S8sk-98" value="Cloud Drone Database" style="rounded=0;whiteSpace=wrap;html=1;" vertex="1" parent="1">
          <mxGeometry x="-425" y="500" width="120" height="60" as="geometry" />
        </mxCell>
        <mxCell id="xFqJ5pbO8O-fmW_8S8sk-100" style="edgeStyle=none;curved=1;rounded=0;orthogonalLoop=1;jettySize=auto;html=1;exitX=0.5;exitY=1;exitDx=0;exitDy=0;fontSize=12;startSize=8;endSize=8;" edge="1" parent="1" source="xFqJ5pbO8O-fmW_8S8sk-98" target="xFqJ5pbO8O-fmW_8S8sk-98">
          <mxGeometry relative="1" as="geometry" />
        </mxCell>
        <mxCell id="xFqJ5pbO8O-fmW_8S8sk-113" style="edgeStyle=none;curved=1;rounded=0;orthogonalLoop=1;jettySize=auto;html=1;exitX=1;exitY=0.5;exitDx=0;exitDy=0;entryX=0;entryY=0.5;entryDx=0;entryDy=0;fontSize=12;startSize=8;endSize=8;" edge="1" parent="1" source="xFqJ5pbO8O-fmW_8S8sk-103" target="xFqJ5pbO8O-fmW_8S8sk-93">
          <mxGeometry relative="1" as="geometry" />
        </mxCell>
        <mxCell id="xFqJ5pbO8O-fmW_8S8sk-103" value="Maintainance UI" style="rounded=0;whiteSpace=wrap;html=1;" vertex="1" parent="1">
          <mxGeometry x="-810" y="500" width="120" height="60" as="geometry" />
        </mxCell>
        <mxCell id="xFqJ5pbO8O-fmW_8S8sk-108" style="edgeStyle=none;curved=1;rounded=0;orthogonalLoop=1;jettySize=auto;html=1;exitX=0.5;exitY=1;exitDx=0;exitDy=0;entryX=0.5;entryY=0;entryDx=0;entryDy=0;fontSize=12;startSize=8;endSize=8;" edge="1" parent="1" source="xFqJ5pbO8O-fmW_8S8sk-105" target="xFqJ5pbO8O-fmW_8S8sk-107">
          <mxGeometry relative="1" as="geometry" />
        </mxCell>
        <mxCell id="xFqJ5pbO8O-fmW_8S8sk-105" value="Delivery and package Management" style="rounded=0;whiteSpace=wrap;html=1;" vertex="1" parent="1">
          <mxGeometry x="-620" y="600" width="120" height="60" as="geometry" />
        </mxCell>
        <mxCell id="xFqJ5pbO8O-fmW_8S8sk-116" style="edgeStyle=none;curved=1;rounded=0;orthogonalLoop=1;jettySize=auto;html=1;exitX=1;exitY=0.5;exitDx=0;exitDy=0;entryX=0.5;entryY=1;entryDx=0;entryDy=0;fontSize=12;startSize=8;endSize=8;" edge="1" parent="1" source="xFqJ5pbO8O-fmW_8S8sk-107" target="xFqJ5pbO8O-fmW_8S8sk-98">
          <mxGeometry relative="1" as="geometry" />
        </mxCell>
        <mxCell id="xFqJ5pbO8O-fmW_8S8sk-107" value="Drone IOT" style="rounded=0;whiteSpace=wrap;html=1;" vertex="1" parent="1">
          <mxGeometry x="-620" y="700" width="120" height="60" as="geometry" />
        </mxCell>
        <mxCell id="xFqJ5pbO8O-fmW_8S8sk-120" value="Evidence&lt;div&gt;png,jpg,jpeg&lt;/div&gt;" style="text;strokeColor=none;fillColor=none;html=1;align=center;verticalAlign=middle;whiteSpace=wrap;rounded=0;fontSize=16;" vertex="1" parent="1">
          <mxGeometry x="-350" y="400" width="60" height="30" as="geometry" />
        </mxCell>
        <mxCell id="xFqJ5pbO8O-fmW_8S8sk-122" value="Get request" style="text;strokeColor=none;fillColor=none;html=1;align=center;verticalAlign=middle;whiteSpace=wrap;rounded=0;fontSize=16;" vertex="1" parent="1">
          <mxGeometry x="-480" y="260" width="40" height="20" as="geometry" />
        </mxCell>
        <mxCell id="xFqJ5pbO8O-fmW_8S8sk-123" value="Get request" style="text;strokeColor=none;fillColor=none;html=1;align=center;verticalAlign=middle;whiteSpace=wrap;rounded=0;fontSize=16;" vertex="1" parent="1">
          <mxGeometry x="-550" y="120" width="40" height="20" as="geometry" />
        </mxCell>
        <mxCell id="xFqJ5pbO8O-fmW_8S8sk-124" value="Get request" style="text;strokeColor=none;fillColor=none;html=1;align=center;verticalAlign=middle;whiteSpace=wrap;rounded=0;fontSize=16;" vertex="1" parent="1">
          <mxGeometry x="-550" y="240" width="40" height="20" as="geometry" />
        </mxCell>
        <mxCell id="xFqJ5pbO8O-fmW_8S8sk-125" value="Get request" style="text;strokeColor=none;fillColor=none;html=1;align=center;verticalAlign=middle;whiteSpace=wrap;rounded=0;fontSize=16;" vertex="1" parent="1">
          <mxGeometry x="-670" y="500" width="40" height="20" as="geometry" />
        </mxCell>
        <mxCell id="xFqJ5pbO8O-fmW_8S8sk-126" value="Post information&lt;div&gt;JSON,CSV&lt;/div&gt;" style="text;strokeColor=none;fillColor=none;html=1;align=center;verticalAlign=middle;whiteSpace=wrap;rounded=0;fontSize=16;" vertex="1" parent="1">
          <mxGeometry x="-665" y="340" width="30" height="10" as="geometry" />
        </mxCell>
        <mxCell id="xFqJ5pbO8O-fmW_8S8sk-127" value="Post information&lt;div&gt;JSON,CSV&lt;/div&gt;" style="text;strokeColor=none;fillColor=none;html=1;align=center;verticalAlign=middle;whiteSpace=wrap;rounded=0;fontSize=16;" vertex="1" parent="1">
          <mxGeometry x="-400" y="660" width="30" height="10" as="geometry" />
        </mxCell>
        <mxCell id="xFqJ5pbO8O-fmW_8S8sk-129" value="" style="endArrow=classic;startArrow=classic;html=1;rounded=0;fontSize=12;startSize=8;endSize=8;curved=1;entryX=0.5;entryY=1;entryDx=0;entryDy=0;exitX=0.5;exitY=0;exitDx=0;exitDy=0;" edge="1" parent="1" source="xFqJ5pbO8O-fmW_8S8sk-105" target="xFqJ5pbO8O-fmW_8S8sk-93">
          <mxGeometry width="50" height="50" relative="1" as="geometry">
            <mxPoint x="-570" y="600" as="sourcePoint" />
            <mxPoint x="-520" y="550" as="targetPoint" />
          </mxGeometry>
        </mxCell>
        <mxCell id="xFqJ5pbO8O-fmW_8S8sk-132" value="Get request" style="text;strokeColor=none;fillColor=none;html=1;align=center;verticalAlign=middle;whiteSpace=wrap;rounded=0;fontSize=16;" vertex="1" parent="1">
          <mxGeometry x="-560" y="570" width="110" height="20" as="geometry" />
        </mxCell>
        <mxCell id="xFqJ5pbO8O-fmW_8S8sk-133" value="Post request" style="text;strokeColor=none;fillColor=none;html=1;align=center;verticalAlign=middle;whiteSpace=wrap;rounded=0;fontSize=16;" vertex="1" parent="1">
          <mxGeometry x="-570" y="670" width="110" height="20" as="geometry" />
        </mxCell>
        <mxCell id="xFqJ5pbO8O-fmW_8S8sk-139" style="edgeStyle=none;curved=1;rounded=0;orthogonalLoop=1;jettySize=auto;html=1;exitX=0.25;exitY=1;exitDx=0;exitDy=0;entryX=0;entryY=1;entryDx=0;entryDy=0;fontSize=12;startSize=8;endSize=8;" edge="1" parent="1" source="xFqJ5pbO8O-fmW_8S8sk-134" target="xFqJ5pbO8O-fmW_8S8sk-91">
          <mxGeometry relative="1" as="geometry" />
        </mxCell>
        <mxCell id="xFqJ5pbO8O-fmW_8S8sk-134" value="Get and post request" style="text;strokeColor=none;fillColor=none;html=1;align=center;verticalAlign=middle;whiteSpace=wrap;rounded=0;fontSize=16;" vertex="1" parent="1">
          <mxGeometry x="-550" y="480" width="190" height="20" as="geometry" />
        </mxCell>
        <mxCell id="xFqJ5pbO8O-fmW_8S8sk-135" value="" style="endArrow=classic;startArrow=classic;html=1;rounded=0;fontSize=12;startSize=8;endSize=8;curved=1;" edge="1" parent="1">
          <mxGeometry width="50" height="50" relative="1" as="geometry">
            <mxPoint x="-500" y="540" as="sourcePoint" />
            <mxPoint x="-425" y="540" as="targetPoint" />
          </mxGeometry>
        </mxCell>
        <mxCell id="xFqJ5pbO8O-fmW_8S8sk-138" value="Get request" style="text;strokeColor=none;fillColor=none;html=1;align=center;verticalAlign=middle;whiteSpace=wrap;rounded=0;fontSize=16;" vertex="1" parent="1">
          <mxGeometry x="-430" y="360" width="40" height="20" as="geometry" />
        </mxCell>
        <mxCell id="xFqJ5pbO8O-fmW_8S8sk-140" value="Once the package at warehouse&lt;div&gt;If Bad weather&lt;/div&gt;" style="text;strokeColor=none;fillColor=none;html=1;align=center;verticalAlign=middle;whiteSpace=wrap;rounded=0;fontSize=9;" vertex="1" parent="1">
          <mxGeometry x="-470" y="410" width="110" height="30" as="geometry" />
        </mxCell>
        <mxCell id="xFqJ5pbO8O-fmW_8S8sk-141" value="Sensor information&amp;nbsp;&lt;div&gt;-coordinates&lt;/div&gt;&lt;div&gt;-wind speed&lt;/div&gt;&lt;div&gt;-charge&lt;/div&gt;&lt;div&gt;&lt;br&gt;&lt;/div&gt;" style="text;strokeColor=none;fillColor=none;html=1;align=center;verticalAlign=middle;whiteSpace=wrap;rounded=0;fontSize=9;" vertex="1" parent="1">
          <mxGeometry x="-420" y="583.75" width="170" height="52.5" as="geometry" />
        </mxCell>
      </root>
    </mxGraphModel>
  </diagram>
</mxfile>
